<svg width="433" height="408" viewBox="0 0 433 408" fill="none" xmlns="http://www.w3.org/2000/svg" xmlns:xlink="http://www.w3.org/1999/xlink">
<path d="M124.729 116H46V198H167V145.178H124.729V116Z" fill="#3595F6" fill-opacity="0.75"/>
<path d="M92 17H29V80H46V116H125V145H163V133H183V33H92V17Z" fill="#5FA3E9" fill-opacity="0.75"/>
<path d="M341 17H404V80H387V105H388V140H312V148H269V133H250V33H341V17Z" fill="#75AEE6" fill-opacity="0.75"/>
<path d="M313 139H387V200H266V148H313V139Z" fill="#75AEE6" fill-opacity="0.75"/>
<path d="M313 270H387V200H266V254H313V270Z" fill="#75AEE6" fill-opacity="0.75"/>
<path d="M340 392H405V328H387V270H316V251H266V310H294V376H340V392Z" fill="#75AEE6" fill-opacity="0.75"/>
<path d="M216 395H259V375H294V310H266V274H246V263H216V395Z" fill="#75AEE6" fill-opacity="0.75"/>
<path d="M217 395H174V375H139V310H167V274H187V263H217V395Z" fill="#75AEE6" fill-opacity="0.75"/>
<path d="M92 391H29V328H46V273H118V251H167V310H140V375H92V391Z" fill="#5FA3E9" fill-opacity="0.75"/>
<path d="M46 274H118V251H167V198H46V274Z" fill="#75AEE6" fill-opacity="0.75"/>
<image id="image0_21_3" width="433" height="408" xlink:href=""/>
</svg>
